<?xml version="1.0" encoding="UTF-8"?>
<svg id="_レイヤー_2" data-name="レイヤー 2" xmlns="http://www.w3.org/2000/svg" xmlns:xlink="http://www.w3.org/1999/xlink" viewBox="0 0 260.18 103.45">
  <defs>
    <style>
      .cls-1 {
        fill: none;
      }

      .cls-2 {
        filter: url(#drop-shadow-1);
      }

      .cls-3 {
        fill: #3a6463;
      }

      .cls-4 {
        fill: #247992;
      }

      .cls-5 {
        fill: #b4e3ee;
      }

      .cls-6 {
        fill: #277e99;
      }

      .cls-7 {
        fill: #165670;
      }

      .cls-8 {
        fill: #fcfefe;
      }

      .cls-9 {
        fill: #491e2a;
      }

      .cls-10 {
        fill: #c98d6e;
      }

      .cls-11 {
        fill: #155f79;
      }

      .cls-12 {
        fill: #774000;
      }

      .cls-13 {
        fill: #6c919e;
      }

      .cls-14 {
        fill: #fefefe;
      }

      .cls-15 {
        fill: #60a8ba;
      }

      .cls-16 {
        fill: #28738d;
      }

      .cls-17 {
        fill: #f7fdfb;
      }

      .cls-18 {
        fill: #155e80;
      }

      .cls-19 {
        fill: #c4ebf3;
      }

      .cls-20 {
        fill: #c8d9cd;
      }

      .cls-21 {
        fill: #3b0044;
      }

      .cls-22 {
        clip-path: url(#clippath);
      }

      .cls-23 {
        fill: #155b75;
      }

      .cls-24 {
        fill: #2d788c;
      }

      .cls-25 {
        fill: #1b5e79;
      }
    </style>
    <filter id="drop-shadow-1" x="0" y="26.82" width="65.79" height="76.63" filterUnits="userSpaceOnUse">
      <feOffset dx="7" dy="7"/>
      <feGaussianBlur result="blur" stdDeviation="5"/>
      <feFlood flood-color="#937d21" flood-opacity=".58"/>
      <feComposite in2="blur" operator="in"/>
      <feComposite in="SourceGraphic"/>
    </filter>
    <clipPath id="clippath">
      <path class="cls-1" d="M7.59,29.11v15.88h18.87v-15.88H7.59ZM24.04,32.78l-.08-.03c-.21.13-.67.45-1.14.8,0,0,0,0,0,0,0,0,0,0,0,.01-.14.1-.28.2-.41.3l-.33.24c-.28-.14-.62-.19-1.01-.11v-2.38c1.52-1.1,2.08-1.48,2.76-1.48.08,0,.17.01.25.03l-.02,2.64Z"/>
    </clipPath>
  </defs>
  <g id="_レイヤー_1-2" data-name="レイヤー 1">
    <g>
      <g>
        <path d="M73.31,48.22l.79.23c.13.5.41.93.84,1.29.43.35.94.65,1.53.88.59.23,1.23.4,1.91.49s1.32.12,1.93.08c1.92-.13,3.29-.51,4.13-1.13.84-.62,1.2-1.7,1.1-3.23l-1.08-15.37c-.03-.45-.25-.78-.65-1.01-.4-.23-.78-.33-1.13-.31l-.06-.86,9.1-.64.06.86c-.54.04-1,.2-1.36.48s-.53.65-.5,1.09l1.11,15.8c.09,1.25-.1,2.35-.56,3.31s-1.15,1.78-2.07,2.45c-.92.67-2.02,1.18-3.31,1.53-1.29.35-2.73.58-4.33.69-.99.07-1.91.07-2.74,0-.84-.07-1.59-.17-2.26-.3-.67-.13-1.25-.26-1.76-.38-.51-.12-.92-.18-1.24-.15-.35.02-.62.24-.82.63l-.75-.43,2.13-6.02Z"/>
        <path d="M108.48,31.32c1.75-.12,3.42-.01,5,.32,1.58.34,2.97.92,4.19,1.73,1.21.81,2.2,1.88,2.97,3.18.76,1.31,1.21,2.88,1.34,4.69.13,1.82-.1,3.43-.67,4.83-.58,1.41-1.41,2.59-2.49,3.57-1.09.97-2.39,1.72-3.91,2.22-1.52.51-3.16.82-4.91.95-1.76.12-3.42.04-5-.25-1.58-.29-2.97-.84-4.18-1.66-1.21-.81-2.2-1.87-2.97-3.18-.77-1.31-1.21-2.87-1.34-4.69-.13-1.82.1-3.43.67-4.83s1.41-2.59,2.49-3.57c1.09-.97,2.39-1.74,3.91-2.29,1.52-.56,3.15-.9,4.91-1.02ZM108.73,34.86c-1.02.07-2.01.31-2.96.71-.95.4-1.79.94-2.51,1.62-.72.68-1.28,1.48-1.68,2.4-.4.93-.56,1.96-.48,3.11.08,1.15.38,2.16.91,3.02s1.19,1.58,2,2.14c.81.57,1.71.99,2.71,1.25,1,.27,2.01.37,3.03.29,1.02-.07,2.01-.31,2.96-.71.95-.4,1.79-.94,2.51-1.62.72-.68,1.28-1.48,1.68-2.4.4-.93.56-1.96.48-3.11-.08-1.15-.38-2.15-.91-3.01-.53-.86-1.19-1.58-2-2.15-.81-.57-1.71-.99-2.71-1.25-1-.27-2.01-.36-3.03-.29Z"/>
        <path d="M131.9,30.84c-.7.05-1.04.31-1,.79l.77,11c.11,1.54.75,2.73,1.93,3.58s2.92,1.19,5.22,1.03c2.3-.16,3.97-.74,5.03-1.75,1.05-1.01,1.52-2.28,1.42-3.81l-.77-11c-.03-.48-.45-.69-1.25-.64l-.06-.86,6.66-.47.06.86c-.7.05-1.04.31-1,.79l.85,12.11c.07.99-.09,1.96-.47,2.9s-1,1.79-1.87,2.56-1.99,1.4-3.38,1.9c-1.39.5-3.05.82-4.96.95-1.92.13-3.6.05-5.04-.25-1.45-.3-2.65-.77-3.61-1.41s-1.69-1.4-2.2-2.28c-.51-.88-.8-1.81-.87-2.8l-.85-12.11c-.02-.25-.13-.43-.33-.53-.2-.1-.57-.13-1.11-.09l-.06-.86,6.85-.48.06.86Z"/>
        <path d="M168.26,27.42c2.84-.2,5.09.12,6.75.95,1.66.83,2.57,2.38,2.73,4.64.06.86-.05,1.64-.32,2.33-.27.69-.65,1.31-1.15,1.84-.49.53-1.05.97-1.66,1.32-.62.35-1.25.62-1.91.83l5.17,6.52c.28.33.58.58.89.73.32.15.65.27,1.01.34l.06.86-7.33.51-.06-.86c.42-.03.61-.19.59-.47-.02-.32-.3-.8-.82-1.43l-4.18-5.38-6.66.47.48,6.85c.02.26.13.43.35.53.22.1.42.14.61.13l.06.86-6.37.45-.06-.86c.57-.04.84-.3.81-.78l-1.25-17.91c-.03-.48-.34-.7-.91-.66l-.06-.86,13.21-.93ZM168.8,36.52c3.13-.22,4.62-1.32,4.48-3.3-.06-.8-.48-1.4-1.26-1.81-.78-.41-1.99-.56-3.62-.44l-7.57.53.39,5.55,7.57-.53Z"/>
        <path d="M184.17,46.61c.57-.04.84-.3.81-.78l-1.25-17.91c-.03-.48-.34-.7-.91-.66l-.06-.86,7.04-.49.06.86c-.22.05-.33.13-.32.26.01.16.39.57,1.14,1.22l12.34,11.36-.91-12.98c-.03-.48-.37-.7-1.01-.65l-.06-.86,5.84-.41.06.86c-.58.04-.85.3-.81.78l1.25,17.91c.03.48.34.7.91.66l.06.86-6.23.44-.06-.86c.22-.02.33-.1.32-.26,0-.13-.18-.34-.5-.64-.33-.3-.7-.64-1.11-1.03l-12.76-11.81.98,13.93c.03.48.38.7,1.06.65l.06.86-5.89.41-.06-.86Z"/>
        <path d="M231.62,27.45c-.04-.61-.56-.88-1.55-.81l-11.68.82.34,4.79,7.37-.52c.54-.04.94-.11,1.19-.2.25-.1.36-.32.34-.67l.86-.06.36,5.08-.96.07c.07-.36-.07-.56-.43-.62-.36-.05-.85-.06-1.49-.02l-6.99.49.4,5.65,12.26-.86c.38-.03.7-.14.94-.33.24-.19.35-.43.33-.72l.86-.06.35,5.03-.86.06c-.02-.29-.16-.44-.42-.45-.26-.01-.58,0-.96.02l-17.57,1.23-.06-.86c.16-.01.31-.08.47-.2.15-.12.22-.31.2-.57l-1.25-17.91c-.02-.25-.11-.43-.28-.53-.17-.1-.33-.15-.49-.13l-.06-.86,17-1.19c.99-.07,1.46-.39,1.42-.96l.86-.06.37,5.31-.86.06Z"/>
        <path d="M237.69,24.24c-.24-.27-.53-.46-.86-.57-.33-.1-.64-.15-.92-.13l-.06-.86,7.9-.55.06.86c-.16.01-.33.08-.51.21s-.27.28-.25.47.09.36.23.51c.14.15.3.33.47.54l5.28,5.98,3.85-6.24c.26-.43.45-.76.58-.98.13-.22.19-.42.17-.61-.02-.25-.11-.41-.27-.46-.17-.05-.33-.07-.49-.06l-.06-.86,7.33-.51.06.86c-.38.03-.79.27-1.22.74-.43.46-.81.93-1.13,1.4l-6.66,9.99.5,7.18c.03.48.35.7.96.65l.06.86-6.37.45-.06-.86c.58-.04.85-.3.81-.78l-.52-7.37-8.87-9.87Z"/>
        <path d="M118.27,82.71c-.1,0-.19,0-.27,0-.08,0-.17-.01-.26,0-.19.01-.63.24-1.33.67-.69.43-1.57.93-2.64,1.48-1.07.56-2.29,1.06-3.67,1.51-1.38.45-2.84.73-4.37.83-2.01.14-3.96.02-5.85-.36-1.89-.38-3.58-1.06-5.07-2.03-1.5-.97-2.71-2.22-3.66-3.76s-1.49-3.38-1.64-5.52c-.15-2.11.14-3.99.85-5.67.72-1.67,1.75-3.1,3.09-4.28,1.34-1.18,2.92-2.11,4.74-2.79,1.81-.67,3.73-1.08,5.74-1.22,1.63-.11,3.11-.09,4.46.07,1.34.16,2.52.35,3.53.57s1.81.43,2.4.65c.59.21.95.32,1.08.31.16-.01.29-.1.39-.27.1-.17.18-.3.24-.4l.76.52-3.33,6.06-.5-.3c0-.1-.02-.19-.04-.29s-.05-.2-.1-.33c-.09-.35-.43-.68-1.03-1.01-.6-.33-1.33-.6-2.2-.83-.87-.23-1.78-.4-2.73-.53-.96-.12-1.83-.16-2.63-.1-1.34.09-2.61.38-3.81.84-1.2.47-2.23,1.1-3.09,1.9s-1.52,1.75-1.99,2.86c-.47,1.11-.65,2.35-.56,3.72.1,1.37.45,2.58,1.07,3.61.62,1.03,1.41,1.88,2.37,2.55.96.67,2.07,1.15,3.33,1.45,1.26.3,2.55.4,3.9.3,1.02-.07,2.08-.27,3.18-.58,1.1-.32,2.1-.69,3-1.12.9-.43,1.64-.9,2.23-1.41.59-.51.87-.97.84-1.38-.02-.22-.09-.41-.23-.56l.64-.43,3.52,4.85-.36.41Z"/>
        <path d="M121.42,83.09c.38-.09.68-.3.89-.62.22-.32.38-.61.49-.88l6.04-16.06c.16-.46.29-.83.38-1.11s.13-.55.11-.8c-.01-.19-.06-.31-.15-.35-.08-.04-.17-.09-.27-.15l-.06-.86,7.23-.51.06.86c-.09.07-.19.13-.3.17-.11.04-.16.17-.14.39.01.19.1.42.26.68.16.26.34.56.52.9l8.9,15.74c.18.28.37.47.57.59.2.11.41.2.64.24l.06.86-6.8.48-.05-.72c.16-.01.32-.07.49-.18.17-.11.24-.29.23-.55-.01-.19-.06-.36-.13-.52-.08-.16-.17-.36-.28-.61l-1.48-2.64-10.25.72-1.16,2.68c-.11.26-.2.5-.26.72-.07.21-.09.4-.08.56.02.26.11.41.27.46.16.05.39.07.68.05l.06.86-6.42.45-.06-.86ZM136.86,74.02l-4.44-7.77-2.83,8.28,7.28-.51Z"/>
        <path d="M149.82,81.1c.57-.04.84-.3.81-.78l-1.25-17.91c-.03-.48-.34-.7-.91-.66l-.06-.86,7.04-.49.06.86c-.22.05-.33.14-.32.26.01.16.39.57,1.14,1.22l12.34,11.36-.91-12.98c-.03-.48-.37-.7-1.01-.65l-.06-.86,5.84-.41.06.86c-.58.04-.85.3-.81.78l1.25,17.91c.03.48.34.7.91.66l.06.86-6.23.44-.06-.86c.22-.02.33-.1.32-.26,0-.13-.18-.34-.5-.64-.33-.3-.7-.64-1.11-1.03l-12.76-11.81.98,13.93c.03.48.38.7,1.06.65l.06.86-5.89.41-.06-.86Z"/>
        <path d="M200.41,58.11c-.45.03-.82.43-1.12,1.19l-5.91,15.96c-.29.85-.52,1.43-.67,1.73-.16.3-.23.53-.22.69.01.19.31.32.89.37l.06.86-7.23.51-.06-.86c.16-.08.3-.16.44-.25.14-.09.2-.21.19-.37-.01-.16-.13-.41-.37-.75-.23-.34-.51-.8-.84-1.38l-8.38-15.15c-.15-.28-.33-.49-.55-.63-.22-.14-.42-.21-.62-.2l-.06-.86,6.75-.47.06.86c-.38.03-.56.25-.53.66.02.22.12.53.33.92.2.39.43.81.69,1.27l6.34,11.54,4.41-11.95c.3-.79.53-1.38.69-1.78.17-.4.22-.71.18-.93-.06-.38-.31-.56-.76-.52l-.06-.86,6.27-.44.06.86Z"/>
        <path d="M199.9,77.59c.38-.09.68-.3.9-.62s.38-.61.49-.88l6.04-16.06c.16-.46.29-.83.38-1.11s.13-.55.11-.8c-.01-.19-.06-.31-.15-.35-.08-.04-.17-.09-.27-.15l-.06-.86,7.23-.51.06.86c-.09.07-.19.13-.3.17-.11.04-.16.17-.14.4.01.19.1.42.26.68.16.26.33.56.52.9l8.9,15.74c.18.28.37.47.57.59.2.11.41.19.64.24l.06.86-6.8.48-.05-.72c.16-.01.32-.07.49-.18.17-.11.24-.29.23-.55-.01-.19-.06-.36-.13-.52-.08-.16-.17-.36-.28-.61l-1.48-2.64-10.25.72-1.16,2.68c-.11.26-.2.5-.26.72-.07.21-.09.4-.08.56.02.26.11.41.27.46.16.05.39.07.68.05l.06.86-6.42.45-.06-.86ZM215.34,68.52l-4.44-7.77-2.83,8.28,7.28-.51Z"/>
        <path d="M229.84,68.99c0,.13.01.26,0,.41s0,.3,0,.46c.03.48.37.9,1,1.25.63.36,1.38.64,2.25.85.87.21,1.73.37,2.58.47.86.1,1.53.13,2,.1.45-.03,1-.1,1.65-.21.65-.11,1.29-.29,1.91-.54.62-.25,1.15-.58,1.57-.98.42-.4.61-.9.57-1.51-.05-.7-.48-1.19-1.28-1.45-.8-.26-1.8-.44-3-.54s-2.48-.18-3.87-.26c-1.38-.08-2.68-.28-3.89-.59-1.21-.32-2.23-.82-3.06-1.52-.83-.69-1.3-1.73-1.4-3.1-.14-2.04.59-3.73,2.2-5.06,1.61-1.33,3.94-2.11,7.01-2.32,1.5-.1,2.79-.08,3.88.09,1.09.16,2.01.36,2.76.6.75.24,1.37.46,1.85.66s.83.3,1.05.29c.26-.02.44-.07.57-.16.12-.09.28-.19.46-.3l.56.49-2.08,4.67-.88-.23c-.05-.19-.09-.38-.14-.57-.05-.19-.2-.37-.47-.54-.68-.5-1.7-.89-3.07-1.18-1.37-.29-2.88-.38-4.54-.26-.64.04-1.24.13-1.81.25s-1.07.29-1.5.51-.77.5-1,.82c-.24.32-.34.71-.3,1.15.05.7.47,1.18,1.28,1.43.8.25,1.8.42,3,.51,1.19.09,2.48.18,3.87.26,1.38.08,2.68.29,3.89.62,1.21.33,2.23.87,3.07,1.61.84.74,1.31,1.82,1.4,3.22s-.17,2.58-.79,3.52c-.62.94-1.43,1.7-2.41,2.29-.99.58-2.09,1-3.31,1.24-1.22.25-2.37.41-3.46.48-1.09.08-2.17.05-3.25-.08-1.08-.13-2.07-.3-2.97-.51-.9-.21-1.66-.41-2.28-.61-.62-.2-1-.29-1.13-.28-.22.02-.41.12-.55.33l-.7-.43,1.83-5.52.93.18Z"/>
      </g>
      <line class="cls-11" x1="33.92" y1="35.45" x2="35.38" y2="35.17"/>
      <line class="cls-11" x1="19.11" y1="37.06" x2="19.33" y2="37.02"/>
      <circle class="cls-24" cx="58.15" cy="99.08" r="1.44"/>
      <circle class="cls-24" cx="11.42" cy="98.93" r="1.44"/>
      <g>
        <g class="cls-2">
          <g>
            <g id="_生成オブジェクト" data-name="生成オブジェクト">
              <g>
                <g>
                  <path class="cls-16" d="M64.78,59.61c.02-.08-.02-.08-.06-.07s-.22,0-.22-.09l-.02-5.85.3-.15c.22-.07.49,0,.7.14.16.11.31.38.31.67v4.51c0,.57-.68.79-1.01.84Z"/>
                  <g>
                    <path class="cls-20" d="M62.81,38.45c1.17,1.17,1.61,3.16,1.62,4.86l.07,9.94c0,.09.17.11.21.11s.09.02.07.1l-.3.15.02,5.85c0,.09.18.1.22.09s.09,0,.06.07c-.05,0-.23-.02-.29.08v31.26c-.01,1.5-.48,2.76-1.01,4.02l-8.1.09c-1.65.02-3.06.87-3.53,2.49-.2.68-.22,1.39-.12,2.03l-2.78.05h-20.73s-5.42,0-5.42,0l-5.3.03c-1.24,0-3.97.02-5.1-.08-1.08-.35.18-1.09-.43-1.38-.24-.11-1.85-.28-1.79.2.04.02.08.04.12.07-.04-.02-.08-.04-.12-.07l-.24-.13-1.27-.72c-.17-.1-.33-.19-.59-.31-.3.3-.59.49-.76.79-1.89-.69-2.08-1.78-3.89-.55-1.73-2.28-3.32-3.91-3.32-7.25v-44.64s.08-1.83.08-1.83c.12-2.89,1.55-5.5,4.08-7.06.7-.43,1.33-.91,2.14-.9.13,0,.25-.09.38-.09-.8.07,2.6-.19,1.7-.19l15.75-.06h32.66c2.39,0,4.36,1.43,5.91,2.98Z"/>
                    <g>
                      <path class="cls-17" d="M43.21,91.48c0,.29-.11.37-.14.41-.05.06-.21.02-.21-.18l-.03-47.33c0-.2.03-.24.09-.32.05-.06.17-.05.21.04.02.05.08.07.08.28v47.1Z"/>
                      <path class="cls-14" d="M53.76,91.09c0,.3-.12.36-.13.42,0,.05-.14.09-.25-.06l-.02-47.07c-.05-.14-.16-.19-.15-.26.01-.11.2-.25.29-.23s.25.09.25.35v46.85Z"/>
                    </g>
                  </g>
                  <path class="cls-11" d="M37.11,34.87h-8.38c-.18,0-.1-.41-.02-.51.26-.33,2.78-.06,2.44-.47"/>
                  <g>
                    <path class="cls-15" d="M23.89,33.34l.14.02c.08.01-.1.71.28.74l6.84-.21c.34.41-2.18.14-2.44.47-.08.1-.16.51.02.51h8.38"/>
                    <path class="cls-15" d="M34.35,34.08l1.19-.1,2.36.1c1.2.3,2.5.07,3.78.13l.09-7.33,2.07-.06c.67,1.36.56,2.88.6,4.38,1.06-.05,1.07,1.54.99,2.48l1.44.1c0,.25-.02.53.1.76l-2.02-.03c-.23,0-.48.03-.52.35l2.58.08c.22,0,.46-.17.47-.33.01-.22.07-.53-.08-.69.11-.27.5-.13.75-.13-.12.14.12.25.11.36-.01.21-.18.4-.02.72,1.95-.08,3.86-.1,5.73-.06h.77c3.63.08,5.71.45,8.07,3.66-1.56-1.55-3.53-2.98-5.91-2.98H24.23s-15.75.06-15.75.06c.91,0-2.5.26-1.7.19-.13,0-.25.09-.38.09.11-.18,0-.38-.03-.65,1.89-.72,3.21-.31,4.96-.45.02-.24.06-.51.16-.65.17-.23.44-.24.72-.24,2.15,0,4.23-.1,6.3.04l-.26,1c1.93,0,3.73.22,5.67-.03-.61-.44-4.59.19-4.66-.47-.02-.16.03-.41.12-.58h1.08c.75,0,1.53.08,2.33.04"/>
                    <g>
                      <path class="cls-23" d="M19.39,33.78c-.09.17-.14.42-.12.58.06.67,4.05.03,4.66.47-1.94.25-3.74.03-5.67.03l.26-1c.29.02.56-.08.87-.08Z"/>
                      <path class="cls-18" d="M47.39,33.9c.15.16.09.47.08.69,0,.17-.25.34-.47.33,0-.09,0-.16.07-.24.09-.1-.08-.1-.11-.16-.12-.23-.1-.5-.1-.76.19.01.36,0,.53.13Z"/>
                      <path class="cls-4" d="M43.84,32.19c-.26.53.17,1.4-.12,1.72-.11.12-.37.17-.5,0,.03.04-.42-2.03.54-2.29-.11.29-.05.47.09.57Z"/>
                      <path class="cls-6" d="M46.95,34.53c.03.06.2.06.11.16-.06.07-.07.15-.07.24l-2.58-.08c.04-.31.29-.35.52-.35l2.02.03Z"/>
                      <path class="cls-3" d="M16.2,34.55c.03.13-.11.13-.15.26h-2.79c-.03-.13.11-.13.15-.26h2.79Z"/>
                    </g>
                  </g>
                  <path class="cls-25" d="M63.48,94.97c-.74,1.75-2.07,3.19-3.88,4.08.17.32.23.55.25.79.11,1.23-.26,2.44-1.33,3.13-.99.64-2.41.65-3.36-.08s-1.45-1.94-1.12-3.29c-.84.04-1.57-.05-2.31-.03-.1-.64-.08-1.35.12-2.03.47-1.61,1.87-2.47,3.53-2.49l8.1-.09Z"/>
                </g>
                <path class="cls-7" d="M7.59,100.08s-.04,0-.05-.01l-1.98-1.16c-1.22-.71-2.28-1.62-3.15-2.7C.88,94.32,0,92.74,0,90.23v-44.64s.08-1.84.08-1.84c.13-3,1.63-5.6,4.13-7.14.09-.05.18-.11.26-.16.61-.39,1.19-.75,1.92-.75,0,0,0,0,.01,0,.05,0,.1-.02.16-.04.07-.02.13-.05.21-.05.06,0,.11.04.11.1,0,.06-.04.11-.1.11-.04,0-.1.02-.15.04-.07.02-.15.05-.23.05h-.01c-.67,0-1.22.35-1.81.72-.09.05-.17.11-.26.17-2.44,1.51-3.91,4.05-4.03,6.97l-.08,1.83v44.64c0,2.46.82,3.95,2.36,5.85.85,1.05,1.89,1.95,3.09,2.65l1.98,1.16c.05.03.07.09.04.14-.02.03-.06.05-.09.05Z"/>
                <polyline class="cls-11" points="31.15 33.89 39.07 34.23 37.11 34.87"/>
              </g>
            </g>
            <path class="cls-25" d="M1.69,94.97c.74,1.75,2.07,3.19,3.88,4.08-.08.39-.23.55-.25.79-.11,1.23.26,2.44,1.33,3.13.99.64,2.41.65,3.36-.08s1.45-1.94,1.12-3.29c.84.04,1.57-.05,2.31-.03.1-.64.08-1.35-.12-2.03-.47-1.61-1.87-2.47-3.53-2.49l-8.1-.09Z"/>
          </g>
          <path class="cls-8" d="M48.63,43.9c-.1.23.28.19.25.39l-.14,46.99c.2.21-.11.36-.36.27v-47.23c-.01-.2.05-.33.11-.39.03-.03.08-.02.15-.03Z"/>
          <path class="cls-17" d="M12.62,91.14c0,.29-.11.37-.14.41-.05.06-.21.02-.21-.18l-.03-47.33c0-.2.03-.24.09-.32.05-.06.17-.05.21.04.02.05.08.07.08.28v47.1Z"/>
          <path class="cls-14" d="M23.16,90.75c0,.3-.12.36-.13.42,0,.05-.14.09-.25-.06l-.02-47.07c-.05-.14-.16-.19-.15-.26.01-.11.2-.25.29-.23s.25.09.25.35v46.85Z"/>
          <path class="cls-10" d="M8.6,52.98c.07-.49-.84-.4-.6-.95.13-3.73-.67-6.21.32-9.96,2.44-.37,4.5-.47,6.72,0,.14,5.28,2.84.42,1.63,10.54-1.32.75-7.21.6-8.06.37Z"/>
          <path class="cls-14" d="M18.07,90.9c0,.3-.12.36-.13.42,0,.05-.14.09-.25-.06l-.02-47.07c-.05-.14-.16-.19-.15-.26.01-.11.2-.25.29-.23s.25.09.25.35v46.85Z"/>
        </g>
        <g>
          <path class="cls-10" d="M11.36,42.99c-.21,0-.41-.02-.59-.06-.61-.14-1.03-.53-1.17-1.1-.22-.88,3.48-3.56,6.62-5.65,2.45-1.63,4.12-2.84,5.23-3.64,1.71-1.24,2.17-1.57,2.58-1.38.32.14.36.52.42,1.08h0c.12,1.17-.43,1.55-1.27,2.13-.63.44-1.49,1.03-2.52,2.26-1.84,2.2-3.8,3.96-5.69,5.09-1.39.83-2.65,1.27-3.61,1.27ZM10.21,41.73c.09.32.32.52.69.6,1.7.39,5.53-1.61,9.28-6.09,1.08-1.29,1.98-1.92,2.64-2.37.79-.55,1.09-.75,1-1.56h0c-.02-.21-.05-.45-.08-.56-.26.08-.98.6-1.95,1.3-1.11.8-2.79,2.01-5.25,3.65-5.55,3.7-6.27,4.87-6.35,5.04Z"/>
          <g>
            <path class="cls-9" d="M44.69,4.89c-.42-.15-.99.02-1.42,0-.51,0-1.05-.15-1.55.01-.78-.08-.06-1.18-1.16-1.66.08-.73-.84.22-1.29-.66-3.06.65-6.2.81-9.26.3-.7-.99-1.9-1.25-2.1-2.77,3.48-.02,7.06-.19,10.71-.07,1.37.05,2.65.06,4,.02,1.49-.04,2.66,1.01,2.54,2.54l-.16,2.04c0,.11-.21.26-.3.25Z"/>
            <path class="cls-5" d="M24.09,26.68l-.05,6.69-.14-.02c-.86.88-1.88-.13-1.02-1,.06-.33-1.32-1.6-1.38-1.41,0-.04,0-.09,0-.13.27-1.2-.14-3.31,1.29-4.82.04-.04.09-.07.13-.1-.15-.48-.2-1.07-.2-1.62l-.07-19.38c.48-.01.96-.11,1.44,0l.07,18.18-.05,3.6Z"/>
            <g>
              <path class="cls-12" d="M27.91.12c.2,1.53,1.4,1.78,2.1,2.77,3.06.51,6.19.34,9.26-.3.45.88,1.37-.07,1.29.66-.13-.07-.31-.13-.52-.07-4.13,1.16-10.19,1.07-14.34.07-1.26-.3-.94,1.82-1.63,1.65-.48-.12-.96-.02-1.44,0s-1.03-.12-1.53.02c-.2-.04-.28-.26-.29-.51l-.13-2.05c-.08-1.17.79-2.2,1.97-2.2l5.26-.03Z"/>
              <path class="cls-21" d="M21.1,4.98h-.02c-.21-.05-.33-.25-.35-.58l-.13-2.05c-.04-.61.17-1.21.57-1.64.38-.41.91-.64,1.47-.64l5.33-.03v.07c.14.96.66,1.4,1.22,1.86.3.25.61.51.86.85,2.88.48,5.98.37,9.2-.31h.06s.03.04.03.04c.22.42.54.38.82.34.17-.02.31-.04.41.05.07.06.09.16.07.32v.11s-.11-.05-.11-.05c-.12-.06-.27-.12-.46-.07-3.91,1.1-9.96,1.13-14.38.07-.66-.16-.84.4-1.01.94-.13.41-.26.8-.62.71-.33-.08-.65-.06-1-.03-.14.01-.28.02-.42.02-.18,0-.36,0-.53-.02-.33-.02-.66-.05-.98.04h-.02ZM23.54,4.76c.18,0,.37.01.55.06.21.05.3-.2.44-.61.17-.52.4-1.23,1.19-1.04,4.39,1.06,10.41,1.03,14.3-.07.18-.05.34-.02.46.03,0-.05-.02-.07-.03-.08-.04-.04-.16-.02-.28,0-.27.04-.68.1-.95-.37-3.23.67-6.33.77-9.23.29h-.03s-.02-.03-.02-.03c-.24-.34-.55-.6-.85-.85-.54-.45-1.11-.92-1.26-1.89l-5.2.03c-.52,0-1,.21-1.36.59-.38.4-.57.96-.53,1.53l.13,2.05c0,.14.05.38.21.43.34-.09.68-.06,1.01-.04.18.01.35.03.52.02.14,0,.28-.01.41-.02.16-.01.33-.03.5-.03Z"/>
            </g>
            <path class="cls-13" d="M43.49,4.65v24.05c-.47-.48-1.03-.88-1.68-1.06-.08-.59.08-3.8.08-4.36l.05-18.52c0,.11,1.56.1,1.55-.12Z"/>
            <path class="cls-13" d="M22.63,4.89l.07,19.38c0,.54.05,1.13.2,1.62-.04.04-.09,8.9-.13,8.93-.31-.63-.91-1.01-1.73-.85l.05-29.07c.5-.14,1.03,0,1.53-.02Z"/>
            <path class="cls-19" d="M44.69,4.89l.05,26.34c-1.53,0-.11-.11-1.48.79V4.9c.43,0,1-.16,1.43,0Z"/>
          </g>
          <g class="cls-22">
            <path class="cls-10" d="M11.36,42.99c-.21,0-.41-.02-.59-.06-.61-.14-1.03-.53-1.17-1.1-.22-.88,3.48-3.56,6.62-5.65,2.45-1.63,4.12-2.84,5.23-3.64,1.71-1.24,2.17-1.57,2.58-1.38.32.14.36.52.42,1.08h0c.12,1.17-.43,1.55-1.27,2.13-.63.44-1.49,1.03-2.52,2.26-1.84,2.2-3.8,3.96-5.69,5.09-1.39.83-2.65,1.27-3.61,1.27ZM10.21,41.73c.09.32.32.52.69.6,1.7.39,5.53-1.61,9.28-6.09,1.08-1.29,1.98-1.92,2.64-2.37.79-.55,1.09-.75,1-1.56h0c-.02-.21-.05-.45-.08-.56-.26.08-.98.6-1.95,1.3-1.11.8-2.79,2.01-5.25,3.65-5.55,3.7-6.27,4.87-6.35,5.04Z"/>
          </g>
        </g>
      </g>
    </g>
  </g>
</svg>